<svg width="261" height="81" viewBox="0 0 261 81" fill="none" xmlns="http://www.w3.org/2000/svg">
<g clip-path="url(#clip0_63_668)">
<rect width="261" height="81" fill="white"/>
<rect x="-16" y="-9" width="296" height="136" fill="#E61A1A"/>
<path fill-rule="evenodd" clip-rule="evenodd" d="M-5 52V104H129H263V52V0H129H-5V52ZM187.633 5.562C189.189 7.938 189.193 8.372 187.684 11.536C185.693 15.713 182.054 16.921 178.493 14.587C176.76 13.452 176 12.047 176 9.977C176 3.549 184.259 0.414 187.633 5.562ZM122.61 10.765C125.787 12.867 137.329 42.108 137.361 48.132C137.405 56.74 130.975 62 120.408 62C115.068 62 114.488 61.752 110.479 57.742C106.459 53.722 103 45.952 103 40.941C103 38.463 100.26 32.193 96.785 26.717C93.897 22.166 93.833 21.842 95.466 20.038C96.41 18.995 98.742 17.401 100.649 16.496C105.089 14.39 106.113 15.219 109.028 23.281C111.971 31.422 115.727 37 118.267 37C119.994 37 120.184 36.523 119.685 33.448C119.368 31.494 117.689 26.816 115.954 23.051C112.414 15.371 112.604 12.68 116.796 11.147C120.181 9.909 121.214 9.841 122.61 10.765ZM229.125 14.5C229.476 16.15 229.817 20.313 229.882 23.75C229.947 27.188 230.17 30 230.378 30C230.586 30 232.455 29.29 234.531 28.423C237.991 26.977 238.669 26.984 242.654 28.506C250.874 31.645 256.962 42.124 258.497 55.776C259.386 63.687 258.449 65 251.913 65C245.989 65 245.199 63.858 245.199 55.295C245.2 50.531 244.696 48.382 243.032 46.045C237.403 38.14 231.286 47.568 235.5 57.654C237.439 62.294 237.407 65.63 235.418 66.393C232.836 67.384 226.281 67.085 223.579 65.854C218.84 63.695 216.022 49.188 216.008 26.872C215.999 14.334 216.255 13.664 221.686 11.998C226.444 10.54 228.425 11.206 229.125 14.5ZM190.066 18.035C192.69 19.44 192.496 22.297 189.422 27.543C186.954 31.754 186.898 32.184 188.109 37.598C189.284 42.845 189.235 43.357 187.437 44.706C186.122 45.692 183.834 46.028 180.311 45.752C172.99 45.179 172.102 44.192 173.363 38.036C174.209 33.908 174.092 32.416 172.694 29.484C169.647 23.095 170.5 21.457 178.5 18.326C182.315 16.833 187.573 16.701 190.066 18.035ZM87.663 20.285C91.973 22.707 96.772 27.898 99.052 32.607C102.237 39.187 102.928 51.69 100.509 58.974C94.306 77.648 75.269 79.285 65.306 62C57.711 48.824 60.657 28.547 71.153 21.75C75.841 18.715 83.635 18.023 87.663 20.285ZM35.906 21.386C36.795 22.458 37.923 22.553 40.869 21.805C46.038 20.493 51.825 22.165 55.548 26.046C58.442 29.063 58.51 29.381 59.03 42.312C59.464 53.125 59.96 56.346 61.78 60.195C63.001 62.777 64 65.317 64 65.838C64 67.233 61.381 68.001 56.668 67.989C40.337 67.946 36.415 62.374 39.554 43.678C41.026 34.912 41.045 33.617 39.724 32.296C37.629 30.201 34.245 32.17 32.415 36.548C30.565 40.976 30.608 50.126 32.5 54.654C34.528 59.509 34.4 60.692 31.649 62.494C29.557 63.865 28.18 63.878 19.118 62.611C3.507 60.429 0.893 57.377 7.016 48.477C11.198 42.399 11.728 38.914 9.114 34.685C6.094 29.798 6.45 28.324 11.25 25.852C21.302 20.676 33.485 18.47 35.906 21.386ZM209.928 22.463C212.964 24.033 214 25.813 214 29.459C214 33.885 209.905 34.94 202.25 32.488C200.794 32.021 200 32.177 200 32.929C200 34.209 202.525 36.732 208.995 41.915C222.705 52.897 217.073 70 199.747 70C190.466 70 183.419 63.564 183.6 55.254C183.773 47.305 190.647 43.684 196.151 48.643C197.171 49.563 198.037 49.749 198.419 49.13C198.759 48.58 197.428 46.902 195.46 45.402C188.703 40.248 186.91 32.744 191.046 26.935C194.973 21.42 203.847 19.318 209.928 22.463ZM166.614 24.425C173.169 28.31 174.629 35.499 170.142 41.801L168.161 44.583L171.113 45.89C172.983 46.717 174.919 48.903 176.39 51.848C181.874 62.826 180.534 65.425 169.705 64.814C161.764 64.365 159 62.239 159 56.58C159 52.867 156.823 49.373 155.152 50.406C153.585 51.375 153.715 53.929 155.506 57.364C158.093 62.325 157.475 64.904 153.28 66.657C148.107 68.818 139.6 68.044 136.704 65.149L134.528 62.972L136.887 56.394C139.671 48.63 139.342 43.611 135.496 35.21C132.508 28.683 132.45 27.808 134.86 25.627C137.551 23.191 144.223 22.076 154.5 22.345C161.137 22.518 164.318 23.064 166.614 24.425ZM153.607 30.582C152.445 33.61 153 39.858 154.571 41.429C156.502 43.359 156.498 43.359 158.429 41.429C160.3 39.558 160.551 31.951 158.8 30.2C157.106 28.506 154.325 28.71 153.607 30.582ZM78.444 35.446C75.223 40.361 78.347 57 82.49 57C87.429 57 87.096 39.112 82.073 34.566C80.24 32.907 80.082 32.945 78.444 35.446ZM6.751 86.751C7.028 87.582 6.582 87.777 5.42 87.331C4.228 86.873 3.902 87.032 4.395 87.83C4.793 88.474 5.799 89 6.632 89C8.785 89 7.898 92.396 5.632 92.832C4.618 93.028 3.273 92.645 2.644 91.981C1.762 91.051 2.015 90.931 3.75 91.455C5.103 91.864 6 91.709 6 91.067C6 90.48 5.352 90 4.559 90C2.68 90 1.671 88.3 2.408 86.378C3.081 84.626 6.13 84.887 6.751 86.751ZM17 88.642C17 92.082 19.333 91.158 20.093 87.418C20.592 84.959 20.81 84.786 21.474 86.314C22.718 89.174 20.409 93.197 17.74 92.818C15.931 92.561 15.439 91.759 15.184 88.65C14.975 86.112 15.231 85.025 15.934 85.459C16.52 85.821 17 87.254 17 88.642ZM33.964 86.456C35.25 88.006 34.596 90 32.801 90C32.207 90 31.123 90.787 30.392 91.75C29.22 93.293 29.06 92.998 29.032 89.25C29.006 85.748 29.33 85 30.878 85C31.91 85 33.299 85.655 33.964 86.456ZM47 86C47 86.55 46.325 87 45.5 87C44.675 87 44 87.45 44 88C44 88.55 44.563 89.007 45.25 89.015C46.083 89.026 46 89.354 45 90C43.718 90.828 43.754 90.972 45.25 90.985C46.212 90.993 47 91.45 47 92C47 92.55 45.875 93 44.5 93C42.333 93 42 92.556 42 89.667C42 87.833 42.3 86.033 42.667 85.667C43.704 84.629 47 84.883 47 86ZM59 85.979C59.825 86.5 60.5 88.293 60.5 89.964C60.5 93.175 59.328 94.017 58.362 91.5C57.606 89.531 56 89.571 56 91.559C56 92.416 55.55 92.84 55 92.5C53.881 91.809 53.632 86.701 54.667 85.667C55.592 84.741 57.228 84.859 59 85.979ZM73 86C73 86.55 72.325 87 71.5 87C69.698 87 69.462 88.966 71.25 89.079C72.25 89.142 72.25 89.259 71.25 89.662C70.563 89.94 70 90.804 70 91.583C70 92.362 69.55 93 69 93C67.894 93 67.608 86.725 68.667 85.667C69.704 84.629 73 84.883 73 86ZM86.96 86.452C89.617 89.653 85.715 94.57 82.25 92.388C78.788 90.207 80.021 85 84 85C84.965 85 86.297 85.653 86.96 86.452ZM101.96 86.452C104.617 89.653 100.715 94.57 97.25 92.388C93.788 90.207 95.021 85 99 85C99.965 85 101.297 85.653 101.96 86.452ZM115.066 86.035C117.554 87.367 117.554 90.633 115.066 91.965C111.45 93.9 110 93.242 110 89.667C110 84.912 111.268 84.003 115.066 86.035ZM139.225 87.329C139.634 87.973 139.976 88.805 139.985 89.179C140.016 90.564 136.793 93 134.929 93C133.337 93 133 92.283 133 88.892C133 84.913 133.086 84.805 135.74 85.471C137.247 85.849 138.815 86.685 139.225 87.329ZM153.429 86.571C155.346 88.489 155.375 89.105 153.656 91.456C152.665 92.811 151.612 93.119 149.656 92.628C147.546 92.099 147 91.366 147 89.064C147 85.055 150.54 83.683 153.429 86.571ZM167.724 86.671C167.967 87.4 167.38 87.651 166.17 87.334C165.101 87.055 163.911 87.335 163.527 87.957C162.65 89.375 164.878 92.194 166.22 91.364C166.824 90.991 166.681 90.413 165.857 89.89C164.866 89.262 165.107 89.026 166.75 89.015C168.278 89.005 169 89.594 169 90.85C169 92.291 168.282 92.678 165.75 92.6C162.937 92.513 162.456 92.111 162.17 89.609C161.829 86.626 163.392 84.808 165.917 85.251C166.697 85.388 167.51 86.027 167.724 86.671ZM190.5 86C190.84 86.55 190.641 87 190.059 87C189.477 87 189 88.098 189 89.441C189 90.784 188.55 92.16 188 92.5C187.417 92.861 187 91.844 187 90.059C187 88.377 186.523 87 185.941 87C185.359 87 185.16 86.55 185.5 86C185.84 85.45 186.965 85 188 85C189.035 85 190.16 85.45 190.5 86ZM202.599 85.765C203.203 86.169 203.691 87.963 203.682 89.75C203.666 93.157 202.618 94.054 201.638 91.5C200.859 89.469 199.25 89.605 198.689 91.75C198.438 92.713 198.18 91.588 198.116 89.25C198.022 85.82 198.337 85.003 199.75 85.015C200.713 85.024 201.994 85.361 202.599 85.765ZM216.5 86C216.842 86.554 216.088 87.014 214.809 87.032C212.563 87.063 212.553 87.104 214.441 88.532C216.363 89.985 216.363 90.001 214.441 90.063C212.723 90.119 212.759 90.231 214.75 91.031C217.703 92.218 217.604 93 214.5 93C212.25 93 212 92.6 212 89C212 85.707 212.343 85 213.941 85C215.009 85 216.16 85.45 216.5 86ZM229.65 90.031C230.275 93.187 230.187 93.376 228.669 92.128C227.254 90.964 226.746 90.964 225.334 92.128C223.825 93.371 223.738 93.218 224.415 90.506C226.019 84.069 228.425 83.851 229.65 90.031ZM243 86C243 86.55 242.55 87 242 87C241.45 87 241 88.44 241 90.2C241 94.078 239.515 92.842 238.657 88.25C238.105 85.295 238.275 85 240.525 85C241.886 85 243 85.45 243 86ZM255.5 86C255.841 86.551 255.081 87.03 253.809 87.068L251.5 87.135L253.75 88.22C254.988 88.817 256 89.926 256 90.684C256 92.645 253.442 93.371 251.311 92.015C249.674 90.973 249.716 90.908 251.749 91.337C252.986 91.599 254.25 91.404 254.558 90.906C254.866 90.408 254.472 90 253.681 90C251.388 90 249.827 87.573 251.224 86.176C252.663 84.737 254.668 84.654 255.5 86ZM31 88C31 88.55 31.45 89 32 89C32.55 89 33 88.55 33 88C33 87.45 32.55 87 32 87C31.45 87 31 87.45 31 88ZM56 88C56 88.55 56.675 89 57.5 89C58.325 89 59 88.55 59 88C59 87.45 58.325 87 57.5 87C56.675 87 56 87.45 56 88ZM82 89C82 90.333 82.667 91 84 91C85.333 91 86 90.333 86 89C86 87.667 85.333 87 84 87C82.667 87 82 87.667 82 89ZM97 89C97 90.333 97.667 91 99 91C100.333 91 101 90.333 101 89C101 87.667 100.333 87 99 87C97.667 87 97 87.667 97 89ZM112 89C112 90.111 112.667 91 113.5 91C114.333 91 115 90.111 115 89C115 87.889 114.333 87 113.5 87C112.667 87 112 87.889 112 89ZM134 88.927C134 90.358 134.642 91 136.073 91C137.504 91 138.043 90.461 137.812 89.261C137.31 86.655 134 86.364 134 88.927ZM148.534 87.945C147.569 89.506 148.839 91 151.132 91C152.507 91 153.04 90.448 152.812 89.261C152.428 87.269 149.507 86.37 148.534 87.945ZM199.5 88C199.84 88.55 200.541 89 201.059 89C201.577 89 202 88.55 202 88C202 87.45 201.298 87 200.441 87C199.584 87 199.16 87.45 199.5 88ZM226.5 89C226.16 89.55 226.359 90 226.941 90C227.523 90 228 89.55 228 89C228 88.45 227.802 88 227.559 88C227.316 88 226.84 88.45 226.5 89Z" fill="white"/>
</g>
<defs>
<clipPath id="clip0_63_668">
<rect width="261" height="81" fill="white"/>
</clipPath>
</defs>
</svg>
