<svg width="1997" height="1123" viewBox="0 0 1997 1123" fill="none" xmlns="http://www.w3.org/2000/svg">
<path fill-rule="evenodd" clip-rule="evenodd" d="M1648.78 58.8158C1673.31 55.2405 1692.08 63.7052 1705.11 84.2068C1724.03 119.256 1728.79 156.285 1719.4 195.292C1704.45 224.627 1680.9 234.942 1648.78 226.237C1630.67 220.301 1618.24 208.399 1611.48 190.531C1594.69 149.777 1598.39 111.162 1622.59 74.6852C1629.65 66.2221 1638.38 60.9328 1648.78 58.8158Z" fill="white"/>
<path fill-rule="evenodd" clip-rule="evenodd" d="M1824.93 90.5547C1853.47 92.843 1870.66 108.182 1876.5 136.576C1882.01 178.798 1869.57 214.504 1839.21 243.694C1807.55 264.306 1778.71 260.869 1752.72 233.379C1750.24 229.48 1748.66 225.247 1747.96 220.683C1742.79 183.692 1751.26 150.366 1773.35 120.706C1786.57 103.402 1803.76 93.3509 1824.93 90.5547Z" fill="white"/>
<path fill-rule="evenodd" clip-rule="evenodd" d="M1501.19 112.771C1526.69 111.372 1547.05 120.893 1562.29 141.336C1584.38 173.522 1592.31 208.965 1586.09 247.661C1571.46 274.408 1548.97 284.723 1518.65 278.606C1501.16 274.87 1488.19 265.083 1479.77 249.247C1466.26 229.365 1460.18 207.413 1461.52 183.39C1460.31 165.2 1463.76 148.009 1471.83 131.814C1479.82 122.417 1489.61 116.069 1501.19 112.771Z" fill="white"/>
<path fill-rule="evenodd" clip-rule="evenodd" d="M1937.6 196.878C1949.74 195.794 1961.39 197.646 1972.51 202.433C1989.37 212.6 1997.3 227.676 1996.32 247.66C1996.52 275.339 1987.8 299.672 1970.13 320.659C1961.88 329.44 1953.15 337.639 1943.95 345.256C1914.24 360.145 1887.52 356.178 1863.81 333.354C1853.3 316.658 1850.65 298.672 1855.87 279.399C1866.65 249.642 1884.9 225.573 1910.62 207.193C1919.38 202.607 1928.38 199.168 1937.6 196.878Z" fill="white"/>
<path d="M1651.95 261.944C1701.05 256.022 1745.49 267.393 1785.25 296.062C1840.69 341.544 1878.52 398.937 1898.72 468.245C1908.48 498.206 1912.7 528.886 1911.42 560.287C1905.19 617.277 1875.84 657.215 1823.34 680.1C1764.82 701.824 1704.51 708.7 1642.43 700.73C1588.68 695.127 1539.49 677.671 1494.85 648.362C1443.51 610.183 1427.37 560.194 1446.45 498.396C1469.03 424.033 1508.43 360.291 1564.67 307.171C1590.76 286.056 1619.87 270.98 1651.95 261.944ZM1733.68 474.592C1715.38 455.356 1692.91 446.891 1666.24 449.202C1659.51 450.814 1652.64 452.665 1645.61 454.756C1629.61 460.484 1617.71 470.798 1609.9 485.701C1605.28 496.755 1607.66 506.012 1617.04 513.472C1646.34 527.345 1677.01 531.577 1709.08 526.168C1715.26 524.995 1721.06 522.878 1726.54 519.82C1742.55 506.815 1744.93 491.739 1733.68 474.592Z" fill="white"/>
<path fill-rule="evenodd" clip-rule="evenodd" d="M1328.22 231.792C1383.15 226.58 1418.32 250.384 1433.75 303.204C1436.99 331.289 1436.45 359.324 1432.16 387.311C1425.31 420.024 1418.96 452.821 1413.12 485.701C1411.39 534.971 1412.45 584.166 1416.29 633.286C1425.99 690.925 1435.51 748.583 1444.86 806.262C1446.62 842.339 1445.56 878.31 1441.68 914.173C1420.4 998.415 1369.88 1057.93 1290.13 1092.7C1212.22 1123.88 1132.35 1130.23 1050.5 1111.75C1002.21 1097 963.328 1069.23 933.865 1028.43C898.389 966.466 906.059 910.66 956.876 861.011C984.239 839.828 1013.6 836.39 1044.95 850.696C1072.58 865.96 1099.29 882.623 1125.09 900.684C1130.72 903.764 1136.54 906.408 1142.55 908.619C1173.21 915.312 1199.39 907.641 1221.1 885.608C1258.94 841.901 1275.87 791.119 1271.88 733.263C1270.08 705.526 1255.53 693.624 1228.24 697.557C1213.31 700.761 1198.5 704.463 1183.81 708.665C1105.04 720.37 1050.29 689.425 1019.56 615.83C997.003 556.869 986.688 495.772 988.615 432.539C986.704 386.534 998.606 344.48 1024.32 306.378C1049.49 274.357 1082.55 258.752 1123.5 259.563C1149.94 264.432 1169.78 278.451 1183.01 301.617C1184.91 305.725 1186.5 309.958 1187.77 314.312C1192 352.123 1190.41 389.679 1183.01 426.985C1177.16 453.577 1170.81 480.025 1163.97 506.331C1157.54 527.639 1159.13 548.269 1168.73 568.222C1189.1 596.928 1212.37 599.573 1238.56 576.156C1249.71 558.659 1253.41 539.616 1249.67 519.027C1245.09 492.085 1240.86 465.108 1236.97 438.093C1225.37 374.189 1238.06 316.001 1275.06 263.531C1288.91 246.168 1306.63 235.589 1328.22 231.792Z" fill="white"/>
<path d="M779.133 271.465C835.925 267.723 883.27 286.766 921.164 328.595C956.399 372.521 959.573 418.542 930.686 466.657C918.573 479.308 905.084 490.152 890.219 499.189C851.074 520.872 812.987 544.146 775.959 569.015C765.254 578.009 757.055 588.853 751.363 601.547C748.494 609.886 751.139 615.177 759.297 617.416C765.227 616.662 770.781 614.811 775.959 611.862C794.922 598.721 813.435 584.966 831.502 570.602C850.495 555.88 871.654 545.3 894.98 538.863C927.985 535.397 953.112 547.828 970.359 576.156C973.744 582.079 975.859 588.426 976.706 595.199C977.765 609.481 977.765 623.764 976.706 638.046C947.672 726.322 887.634 780.013 796.59 799.12C711.396 810.982 641.836 783.741 587.909 717.393C552.306 660.008 538.553 597.587 546.648 530.135C553.35 431.566 598.049 356.186 680.744 303.997C711.386 285.936 744.183 275.091 779.133 271.465ZM800.558 407.94C790.944 397.694 779.042 393.463 764.852 395.245C724.909 404.76 698.194 429.094 684.711 468.244C681.293 485.718 688.435 495.239 706.135 496.809C741.995 488.004 772.412 470.019 797.384 442.853C805.253 431.751 806.312 420.112 800.558 407.94Z" fill="white"/>
<path fill-rule="evenodd" clip-rule="evenodd" d="M96.7551 0.098737C113.162 -0.164694 129.56 0.098737 145.95 0.892204C165.006 2.6172 180.61 10.8153 192.765 25.4897C213.496 54.5734 220.372 86.8421 213.395 122.293C210.518 151.721 205.757 180.814 199.112 209.574C192.795 241.774 192.266 274.043 197.525 306.377C199.409 320.535 205.492 332.437 215.775 342.083C224.357 345.961 233.349 347.018 242.753 345.257C266.885 335.042 291.748 327.107 317.339 321.453C383.557 315.808 432.487 341.992 464.13 400.006C502.401 476.918 521.179 558.382 520.466 644.394C525.954 697.553 514.052 746.219 484.76 790.391C469.107 811.883 449.27 828.016 425.25 838.793C379.142 851.291 345.023 836.744 322.893 795.152C313.284 769.855 308.788 743.67 309.404 716.599C313.083 659.933 319.694 603.597 329.241 547.591C335.017 515.881 326.289 489.168 303.056 467.451C288.314 458.094 273.503 458.094 258.622 467.451C236.935 486.167 229.264 509.706 235.612 538.069C241.736 570.498 248.612 602.765 256.242 634.872C270.565 699.52 266.863 762.998 245.133 825.304C218.016 887.394 172.26 907.759 107.864 886.401C96.6027 879.317 86.8177 870.589 78.5053 860.216C57.7848 827.511 49.5851 791.805 53.9079 753.098C54.649 711.354 58.0879 669.831 64.2229 628.524C69.8407 561.776 65.6083 495.655 51.5275 430.158C37.4625 367.021 22.6516 304.073 7.09335 241.313C-2.36445 194.239 -2.36445 147.16 7.09335 100.076C19.5603 50.8584 49.447 17.5328 96.7551 0.098737Z" fill="white"/>
</svg>
