<svg width="2012" height="2331" viewBox="0 0 2012 2331" fill="none" xmlns="http://www.w3.org/2000/svg">
<path fill-rule="evenodd" clip-rule="evenodd" d="M757.906 2.87278C846.416 -10.0259 914.144 20.5118 961.147 94.4744C1029.39 220.919 1046.57 354.508 1012.67 495.231C958.743 601.06 873.782 638.273 757.906 606.871C692.583 585.453 647.755 542.515 623.366 478.056C562.795 331.03 576.134 191.721 663.442 60.1238C688.919 29.5918 720.407 10.5101 757.906 2.87278Z" fill="#F6B656"/>
<path fill-rule="evenodd" clip-rule="evenodd" d="M1393.38 117.374C1496.38 125.63 1558.38 180.968 1579.45 283.402C1599.32 435.724 1554.43 564.539 1444.91 669.846C1330.69 744.21 1226.67 731.809 1132.89 632.633C1123.96 618.566 1118.24 603.298 1115.72 586.832C1097.05 453.38 1127.63 333.153 1207.32 226.151C1255.01 163.724 1317.01 127.462 1393.38 117.374Z" fill="#F6B656"/>
<path fill-rule="evenodd" clip-rule="evenodd" d="M225.464 197.523C317.467 192.474 390.92 226.825 445.881 300.575C525.574 416.692 554.2 544.556 531.757 684.157C478.972 780.654 397.847 817.867 288.44 795.796C225.35 782.32 178.576 747.013 148.175 689.882C99.4549 618.152 77.5277 538.957 82.3368 452.29C77.9857 386.669 90.4092 324.649 119.55 266.225C148.347 232.321 183.671 209.42 225.464 197.523Z" fill="#F6B656"/>
<path fill-rule="evenodd" clip-rule="evenodd" d="M1799.88 500.952C1843.67 497.042 1885.69 503.723 1925.83 520.99C1986.63 557.67 2015.25 612.059 2011.7 684.155C2012.45 784.012 1980.96 871.795 1917.24 947.51C1887.47 979.187 1855.98 1008.77 1822.78 1036.25C1715.6 1089.96 1619.19 1075.65 1533.66 993.311C1495.76 933.077 1486.2 868.189 1505.03 798.657C1543.91 691.306 1609.74 604.473 1702.55 538.165C1734.15 521.62 1766.61 509.213 1799.88 500.952Z" fill="#F6B656"/>
<path d="M769.352 735.685C946.486 714.319 1106.79 755.345 1250.26 858.775C1450.24 1022.86 1586.72 1229.91 1659.6 1479.95C1694.81 1588.04 1710.04 1698.72 1705.41 1812C1682.96 2017.6 1577.05 2161.69 1387.66 2244.25C1176.52 2322.62 958.967 2347.43 735.001 2318.68C541.092 2298.46 363.613 2235.48 202.566 2129.75C17.3594 1992.01 -40.8474 1811.67 27.9511 1588.72C109.419 1320.45 251.573 1090.49 454.471 898.85C548.591 822.672 653.59 768.283 769.352 735.685ZM1064.21 1502.85C998.199 1433.45 917.13 1402.91 820.892 1411.25C796.617 1417.07 771.828 1423.74 746.466 1431.29C688.757 1451.95 645.819 1489.16 617.651 1542.93C600.991 1582.81 609.579 1616.2 643.414 1643.12C749.099 1693.16 859.765 1708.43 975.47 1688.92C997.74 1684.69 1018.69 1677.05 1038.45 1666.02C1096.21 1619.1 1104.8 1564.71 1064.21 1502.85Z" fill="#F6B656"/>
</svg>
