<svg width="1381" height="387" viewBox="0 0 1381 387" fill="none" xmlns="http://www.w3.org/2000/svg">
<path fill-rule="evenodd" clip-rule="evenodd" d="M953.964 3.45505C941.279 9.97005 933.267 22.3501 932.264 36.9851C931.836 43.2301 932.107 46.0071 933.51 49.7341C937.003 59.0121 943.982 66.3411 952.5 69.6741C956.759 71.3411 970.948 71.2831 975.777 69.5791C982.297 67.2781 987.759 63.0951 992.532 56.7461C998.138 49.2881 1000.51 41.8341 1000.45 31.8871C1000.42 25.3631 999.942 23.3251 997.14 17.6331C991.261 5.69205 982.152 0.116051 968.5 0.105051C961.38 0.0990514 959.781 0.468054 953.964 3.45505ZM621.901 42.9721C608.759 46.7511 598.727 52.1671 594.419 57.8101C591.555 61.5611 591.001 63.1161 591.006 67.3941C591.013 74.6431 592.405 78.8901 599.231 92.5001C621.324 136.552 629.791 160.999 628.832 177.971C628.389 185.806 626.399 189 621.959 189C617.696 189 607.896 181.763 601.329 173.766C588.479 158.116 584.531 150.455 573.624 120C562.568 89.1281 556.639 75.7681 552.305 71.9631C545.254 65.7721 532.277 68.8251 510.5 81.7971C501.854 86.9471 496.492 91.5421 493.032 96.7661C487.445 105.2 488.922 109.368 505.517 132C523.542 156.58 534.405 184.175 539.986 219.559C544.034 245.22 548.385 258.933 558.149 276.812C562.607 284.975 565.333 288.39 575.47 298.509C586.129 309.151 588.582 311.059 597 315.26C609.565 321.53 616.816 322.961 636.122 322.983C649.41 322.997 653.175 322.637 661.328 320.569C690.554 313.155 712.332 294.873 720.535 270.866C727.909 249.285 725.666 226.793 712.968 195C709.782 187.025 705.747 177.35 704.001 173.5C702.255 169.65 697.713 158.533 693.909 148.796C681.809 117.823 652.275 50.1351 649.125 46.1581C643.758 39.3821 637.096 38.6021 621.901 42.9721ZM1193 47.6971C1186.7 48.7661 1168.24 53.4181 1165.11 54.7271C1156.74 58.2261 1151.23 65.0631 1149.19 74.5001C1142.39 105.883 1148.28 220.568 1159.65 278.5C1162.88 294.978 1166.26 307.714 1170.48 319.368C1175.65 333.658 1178.03 336.86 1186.85 341.424C1194.58 345.419 1199.28 346.205 1218.5 346.715C1248.41 347.51 1261.06 345.091 1263.99 338.021C1266.08 332.973 1264.76 323.561 1260.52 313.44C1252.92 295.252 1248.78 282.34 1246.9 271C1243.86 252.584 1244.57 245.654 1250.76 233.5C1255.82 223.548 1261.86 219.155 1270.85 218.885C1286 218.431 1297.89 230.993 1305.05 255C1307.09 261.834 1307.34 265.342 1307.91 294.5C1308.5 324.912 1308.65 326.706 1310.74 330.649C1311.95 332.931 1314.64 335.856 1316.72 337.149C1320.24 339.338 1321.5 339.498 1335 339.478C1358.59 339.442 1373.09 335.835 1378.41 328.68C1384.84 320.018 1378.16 262.378 1366.79 228.5C1353.26 188.163 1326.78 153.991 1298.65 140.588C1287.27 135.164 1279.85 133.626 1267.82 134.199C1254.76 134.822 1246.33 137.793 1235.33 145.652L1226.5 151.963L1225.82 140.732C1225.45 134.554 1224.41 116.45 1223.51 100.5C1221.49 64.6791 1220.81 59.0531 1217.95 54.4211C1214.45 48.7521 1210.7 46.9851 1202.5 47.1401C1198.65 47.2131 1194.38 47.4631 1193 47.6971ZM978.5 77.7251C969.865 78.4711 951.098 82.1871 943.5 84.6551C925.681 90.4421 909.496 101.187 904.834 110.325C903.261 113.408 902.881 115.675 903.199 120.072C903.554 124.983 904.337 126.852 908.679 133.151C924.439 156.016 926.593 171.643 917.368 196.183C911.421 212.004 910.937 215.795 914.228 220.769C919.613 228.906 933.109 232.926 957.681 233.713C970.776 234.133 975.353 233.901 981.681 232.499C997.435 229.01 1005 222.77 1005 213.265C1005 211.156 1002.79 203.355 1000.08 195.929C993.812 178.701 992.17 168.703 993.885 158.182C995.512 148.205 1001.79 135.123 1010.57 123.424C1019.42 111.63 1022.4 105.208 1021.73 99.3091C1021.11 93.7621 1016.69 87.3411 1011.38 84.2421C1003.43 79.6141 989.229 76.7981 978.5 77.7251ZM394 88.1141C384.618 90.6061 368.094 98.1921 361.5 103.035C342.054 117.317 323.273 148.338 315.495 179.019C304.124 223.877 308.711 270.654 328.519 311.848C339.495 334.674 350.175 349.012 366.08 362.277C387.298 379.973 405.182 387 429 387C454.541 387 473.626 378.39 493.645 357.836C519.763 331.018 534 291.34 534 245.365C534 197.831 516.784 150.893 488.417 121.084C470.997 102.779 452.781 91.7981 432.5 87.3781C423.146 85.3391 402.994 85.7241 394 88.1141ZM137 93.159C101.831 100.544 69.789 111.219 41.5 124.973C23.517 133.717 17 140.444 17 150.264C17 155.204 19.765 160.159 27.457 169C34.832 177.478 37.002 183.037 37.684 195.207C38.312 206.395 36.76 216.737 33.212 225.008C32.149 227.487 25.651 237.837 18.774 248.008C2.668 271.825 0 277.074 0 284.943C0 293.402 3.268 300.33 10.063 306.274C19.185 314.254 33.68 318.111 80.5 325.018C111.713 329.622 133.978 330.941 144.583 328.813C149.636 327.799 151.238 326.887 155.555 322.563C164.988 313.117 165.299 304.383 156.966 283C154.072 275.575 150.885 265.675 149.883 261C147.166 248.325 146.463 226.085 148.319 211.5C150.111 197.421 151.445 193.016 158.081 179.265C166.607 161.598 176.65 153.671 188.293 155.417C198.817 156.995 202.305 165.426 200.037 183.805C199.379 189.137 196.883 205.425 194.491 220C188.127 258.777 187.651 263.272 188.271 278.738C189.385 306.489 195.398 324.138 207.312 334.626C221.461 347.08 250.763 353.763 293.5 354.281C311.248 354.497 311.57 354.463 316.5 351.849C328.788 345.334 329.023 340.845 318.255 318.332C299.705 279.545 294.026 242.48 300.196 200.457C301.594 190.937 302.385 180.774 302.373 172.5C302.356 160.564 302.123 158.931 299.528 152.55C293.32 137.279 286.106 127.971 272.655 117.872C257.521 106.509 244.61 102.038 224.724 101.272C208.535 100.649 201.548 101.938 187.749 108.095C182.935 110.243 178.548 112 177.999 112C177.449 112 177 110.01 177 107.577C177 101.963 173.581 97.6451 166.541 94.3671C162.244 92.3661 160.023 92.0341 151.5 92.1171C146 92.1701 139.475 92.6391 137 93.159ZM1065.33 99.4811C1055.19 101.321 1045.9 104.539 1035.5 109.82C1023.45 115.935 1015.83 123.759 1009.14 136.899C1001.64 151.63 1000.52 155.755 1000.54 168.5C1000.56 178.383 1000.89 180.406 1003.81 188.42C1005.6 193.325 1008.5 200.044 1010.27 203.35C1014.38 211.068 1025.07 221.922 1036.5 229.975C1047.03 237.396 1051.37 241.279 1054.13 245.725C1055.89 248.564 1055.97 249.284 1054.81 251.725C1052.49 256.591 1048.93 255.994 1041.74 249.532C1028.59 237.723 1015.18 233.759 1001.19 237.548C995.264 239.151 993.815 240.09 987.504 246.42C975.61 258.35 971.272 271.22 972.31 291.5C972.934 303.702 974.142 308.378 979.305 318.576C984.464 328.766 987.793 332.862 999.007 342.813C1013.25 355.448 1022.44 360.015 1041.69 364.018C1069.03 369.704 1091.13 366.508 1113.95 353.57C1126.76 346.311 1139.1 333.882 1144.32 322.968C1150.29 310.508 1151.51 304.48 1151.41 288C1151.33 275.028 1151.03 272.604 1148.56 265C1142.27 245.637 1130.47 226.219 1118.04 214.764C1114.44 211.452 1103.83 203.676 1094.46 197.484C1070.23 181.478 1064 174.749 1064 164.575C1064 159.3 1065.58 158 1072 158C1074.82 158 1077.15 158.766 1079.32 160.406C1084.27 164.149 1093.99 168.763 1100.5 170.459C1119.53 175.414 1133.47 168.455 1137.5 151.988C1140.98 137.799 1137.68 124.713 1128.09 114.647C1119.65 105.794 1111.54 102.216 1093.76 99.4921C1082.2 97.7221 1075.04 97.7191 1065.33 99.4811ZM786 105.665C765.412 106.769 730.66 111.987 721.637 115.329C714.636 117.921 707.982 123.473 704.234 129.849C701.807 133.978 701.51 135.455 701.585 143L701.67 151.5L711.322 171.196C721.167 191.288 725.029 201.754 729.145 219.5C731.051 227.718 731.467 232.351 731.482 245.5C731.499 261.041 731.405 261.773 728.198 271C726.381 276.225 722.602 285.675 719.799 292C716.996 298.325 714.1 305.75 713.363 308.5C711.564 315.215 711.594 329.325 713.415 332.8C715.873 337.493 721.244 341.739 729.4 345.439C743.519 351.844 746.904 352.395 772.5 352.45C793.511 352.496 796.175 352.304 803.309 350.237C816.439 346.432 823.326 342.067 828.314 334.39C834.819 324.378 834.162 317.246 825.394 302.668C817.891 290.192 813.737 279.159 813.213 270.311C812.819 263.646 812.974 262.935 815.348 260.561C819.386 256.523 827.996 257.232 831.784 261.913C836.411 267.632 839.154 278.792 840.529 297.5C841.509 310.848 844.938 318.934 852.644 326.072C858.159 331.179 860.603 332.489 869.549 335.129C877.069 337.347 879.045 337.475 906 337.487C931.33 337.499 935.001 337.296 939 335.67C948.412 331.842 951 327.45 951 315.3C951 308.814 950.376 304.528 948.627 299C938.039 265.527 924.23 242.355 910.613 235.213C903.78 231.629 901.698 231.013 893.662 230.196L886.824 229.5L892.088 223.5C912.281 200.482 919.369 175.836 912.065 154.035C905.882 135.581 895.697 124.467 876.736 115.485C860.296 107.697 841.981 104.867 810.076 105.185C799.859 105.287 789.025 105.503 786 105.665ZM834.664 143.543C839.252 146.232 841.39 149.56 844.591 159C846.11 163.477 846.461 167.569 846.478 181L846.5 197.5L843.232 203.757C835.548 218.468 822.754 220.223 814.167 207.743C804.405 193.555 803.264 166.162 811.781 150.5C816.579 141.676 826.389 138.694 834.664 143.543ZM422.781 169.232C432.624 175.14 442.409 199.714 446.07 227.714C447.62 239.577 446.745 264.318 444.487 272.446C442.427 279.86 438.582 287.65 435.205 291.25C431.853 294.824 425.835 295.027 420.898 291.734C410.408 284.736 400.456 259.749 396.949 231.599C394.666 213.28 397.124 187.178 401.996 177.982C407.945 166.756 414.241 164.106 422.781 169.232Z" fill="black"/>
</svg>
