<svg width="473" height="473" viewBox="0 0 473 473" fill="none" xmlns="http://www.w3.org/2000/svg">
<path fill-rule="evenodd" clip-rule="evenodd" d="M204.801 130.505C192.792 130.922 173.396 132.851 161.301 134.831C123.34 141.045 102.139 152.859 92.9348 172.928C82.7428 195.15 64.8918 253.91 61.8398 275.279C59.1928 293.816 62.4578 301.749 76.5998 311.141C119.007 339.303 226.464 350.42 319.801 336.3C355.139 330.955 387.47 319.01 401.868 305.98C408.905 299.612 411.804 294.528 411.794 288.569C411.772 274.15 380.941 186.482 368.318 164.943C360.164 151.03 346.641 143.763 316.957 137.341C288.31 131.143 251.322 128.889 204.801 130.505ZM270.301 144.354C284.442 145.643 310.929 149.988 322.161 152.862C336.151 156.442 349.999 162.626 352.47 166.397C354.012 168.751 354.021 169.185 352.572 171.621C348.415 178.61 325.381 186.159 295.801 190.227C267.252 194.152 206.643 194.699 177.301 191.296C161.442 189.457 145.286 185.912 132.801 181.533C111.085 173.917 107.022 168.696 117.555 161.937C131.858 152.759 158.828 146.625 197.301 143.799C209.197 142.925 258.764 143.302 270.301 144.354ZM119.301 190.303C127.028 193.743 142.264 198.37 153.301 200.629C185.808 207.283 256.826 208.796 295.801 203.665C325.091 199.81 350.884 191.968 358.475 184.61C360.288 182.853 361.98 181.625 362.236 181.881C362.492 182.137 364.932 188.181 367.659 195.313C381.283 230.95 396.793 278.956 397.118 286.488C397.279 290.232 396.808 291.197 392.848 295.231C379.544 308.787 339.276 320.564 290.301 325.224C222.294 331.694 147.316 325.08 104.115 308.801C92.1218 304.281 86.2608 301.093 80.6838 296.054C75.2758 291.169 74.1438 286.809 75.6788 276.782C78.8198 256.262 92.6928 207.503 101.032 187.675L104.23 180.071L109.265 184.074C112.035 186.276 116.551 189.079 119.301 190.303ZM215.897 224.044C211.985 226.055 209.733 230.009 209.181 235.838C208.566 242.33 210.688 247.039 215.8 250.529C219.866 253.304 222.343 253.356 226.611 250.753C231.011 248.071 233.193 242.736 232.451 236.475C231.196 225.878 223.53 220.121 215.897 224.044ZM250.842 226.398C246.605 229.963 244.801 233.81 244.801 239.279C244.801 249.924 252.874 255.792 260.966 251.029C269.614 245.939 271.493 228.896 263.856 224.809C260.201 222.852 254.182 223.587 250.842 226.398ZM184.927 244.326C177.617 250.477 180.016 266.14 188.827 269.79C191.202 270.774 192.768 270.806 195.69 269.93C201.243 268.267 203.109 265.666 203.598 258.913C204.066 252.44 201.655 246.191 197.592 243.345C194.125 240.917 188.457 241.356 184.927 244.326ZM275.699 251.03C273.83 252.269 271.294 255.308 270.064 257.784C268.16 261.615 267.981 262.846 268.863 266.042C271.658 276.162 285.147 274.999 290.273 264.196C292.523 259.455 291.806 253.011 288.753 250.539C285.72 248.083 279.812 248.305 275.699 251.03ZM233.725 259.478C227.111 261.171 222.097 264.059 212.414 271.753C203.28 279.012 199.801 284.45 199.801 291.469C199.801 297.879 202.748 302.485 208.81 305.549C212.711 307.521 214.352 307.753 221.301 307.311C225.701 307.031 231.04 306.516 233.164 306.168C235.524 305.78 239.899 306.21 244.406 307.271C253.046 309.306 259.07 308.746 263.954 305.455C274.056 298.647 274.464 287.437 265.03 275.856C252.636 260.643 244.929 256.61 233.725 259.478Z" fill="black"/>
</svg>
