<svg width="473" height="473" viewBox="0 0 473 473" fill="none" xmlns="http://www.w3.org/2000/svg">
<path fill-rule="evenodd" clip-rule="evenodd" d="M231.278 75.5537C214.629 77.0877 205.315 81.0207 194.195 91.2127C188.138 96.7647 183.763 104.14 180.383 114.494C176.84 125.35 174.678 127.166 161.26 130.569C153.099 132.639 148.783 134.292 146.286 136.304C140.914 140.632 140.138 142.813 140.543 152.435C140.843 159.581 141.433 162.046 144.246 167.907C148.149 176.039 155.257 183.591 163.349 188.202C169.645 191.79 182.988 196.369 196.163 199.462C208.756 202.418 208.881 202.548 206.825 210.499C201.061 232.787 199.318 249.931 199.293 284.579C199.278 305.805 198.181 320.923 195.872 331.755C194.862 336.492 194.376 337.468 193.789 335.935C188.988 323.395 180.271 309.058 169.142 295.398C159.632 283.726 158.091 279.435 163.41 279.435C167.471 279.435 172.645 276.195 175.208 272.048C176.325 270.241 177.672 265.651 178.202 261.849C180.915 242.38 172.515 223.802 155.929 212.588C135.275 198.625 116.22 193.767 98.4966 197.946C88.2666 200.357 84.5456 202.956 68.5826 218.837C50.8716 236.457 47.8986 241.273 48.0026 252.18C48.1016 262.567 52.8756 268.041 63.9776 270.496C67.9596 271.377 69.3486 272.33 72.1286 276.088C73.9716 278.58 77.4586 282.014 79.8786 283.719C82.2976 285.425 84.2776 287.148 84.2776 287.549C84.2776 287.949 83.3916 292.025 82.3096 296.606C81.2266 301.187 79.1886 315.285 77.7806 327.935C76.3716 340.585 74.3596 353.804 73.3086 357.311C71.6366 362.886 70.5206 364.519 64.4256 370.311C58.6076 375.84 57.3446 377.623 56.7936 381.094C56.0076 386.039 57.9436 390.519 62.0156 393.176C65.6166 395.525 88.2516 395.56 92.7126 393.223C95.2006 391.919 95.9266 391.912 98.4366 393.164C102.211 395.047 120.914 396.346 128.076 395.223C131.88 394.627 135.307 394.722 138.621 395.517C142.036 396.337 147.833 396.466 157.655 395.942C165.423 395.528 173.578 395.275 175.778 395.381C177.978 395.487 187.672 395.624 197.32 395.685C214.029 395.791 215.063 395.684 219.079 393.427C221.398 392.123 223.903 390.129 224.645 388.996C226.568 386.057 228.704 378.134 232.212 360.935C233.894 352.685 236.071 342.854 237.049 339.087L238.828 332.24L246.087 339.587L253.345 346.935L252.7 352.935C252.346 356.235 251.747 359.504 251.369 360.2C250.991 360.896 247.328 363.159 243.23 365.23C236.915 368.42 235.435 369.67 233.528 373.427C232.068 376.303 231.278 379.65 231.278 382.96C231.278 387.252 231.726 388.49 234.103 390.768C235.657 392.256 238.47 393.938 240.353 394.505C246.405 396.325 265.122 396.773 276.278 395.365C289.092 393.748 290.835 393.769 315.278 395.84C329.954 397.084 341.334 397.362 361.278 396.964C388.178 396.428 391.709 396.2 403.278 394.257C413.084 392.61 419.506 388.669 422.867 382.235C425.093 377.974 424.641 370.084 421.856 364.588C419.597 360.131 412.351 352.435 410.413 352.435C409.94 352.435 409.247 348.947 408.872 344.685C407.44 328.394 401.97 311.084 392.754 293.67C383.045 275.328 375.723 265.091 358.252 245.435C350.6 236.826 340.772 223.671 330.389 208.139L323.171 197.343L327.77 192.678C334.074 186.283 337.817 180.367 340.162 173.088C347.824 149.3 339.471 121.631 318.235 100.454C311.183 93.4227 308.04 91.1237 300.235 87.2917C295.033 84.7377 287.739 81.7147 284.026 80.5737C268.722 75.8697 248.614 73.9567 231.278 75.5537ZM262.778 87.5277C279.815 89.8967 296.709 96.6927 307.103 105.359C318.668 115.002 327.838 130.162 330.946 144.778C335.583 166.581 324.165 188.852 307.64 190.234C298.614 190.989 291.958 187.545 288.036 180.09C286.067 176.346 285.847 174.4 285.814 160.435C285.794 151.91 286.141 139.535 286.584 132.935C287.463 119.841 286.633 116.21 282.63 115.632C279.864 115.233 279.514 116.329 277.222 132.594C273.184 161.247 273.57 174.84 278.74 186.133C283.655 196.868 293.583 202.77 306.472 202.618L313.165 202.539L318.95 211.737C326.417 223.61 342.413 244.804 355.084 259.615C364.299 270.386 374.278 283.443 374.278 284.729C374.278 285.027 376.228 288.569 378.611 292.602C390.722 313.098 398.097 338.046 397.02 354.875C396.155 368.402 389.455 380.17 381.322 382.447C379.373 382.993 364.943 383.734 349.255 384.093C322.626 384.704 320.613 384.628 318.934 382.948C316.352 380.366 318.056 379.055 328.813 375.346C333.744 373.645 338.643 371.417 339.701 370.394C341.447 368.705 341.506 368.138 340.34 364.247C339.633 361.889 335.991 354.071 332.246 346.873C323.437 329.943 321.936 324.756 322.457 313.041C322.802 305.291 323.303 303.127 325.82 298.512C331.908 287.351 340.592 284.599 351.07 290.513C354.794 292.615 357.277 293.401 358.9 292.994C364.868 291.496 358.56 281.523 349.059 277.436C332.54 270.33 314.872 284.753 311.225 308.321C309.2 321.403 311.025 330.081 319.237 346.435C326.527 360.951 326.95 362.264 324.597 363.062C323.597 363.402 319.714 365.053 315.97 366.732C307.569 370.499 304.278 374.112 304.278 379.567V383.545L299.528 383.24C295.911 383.008 294.862 382.577 295.128 381.435C300.357 359.052 302.418 342.513 300.297 339.958C296.779 335.719 294.5 339.465 290.885 355.435C285.912 377.399 284.769 380.567 281.11 382.525C278.255 384.053 244.508 384.065 242.982 382.539C241.006 380.563 245.351 376.336 251.706 374.051C255.062 372.844 258.386 370.861 259.443 369.435C261.752 366.317 265.554 347.203 268.252 325.149C271.268 300.494 270.811 289.435 266.778 289.435C264.702 289.435 263.706 292.374 261.812 304.082C257.945 327.994 257.278 332.219 257.278 332.809C257.278 334.6 254.795 332.723 248.296 326.021C240.079 317.547 236.032 315.253 233.596 317.688C231.814 319.47 227.767 333.333 222.724 354.935C216.955 379.64 216.688 380.366 212.761 382.006C210.392 382.997 205.343 383.435 196.31 383.435H183.278V380.57C183.278 376.583 186.412 373.011 191.156 371.59C198.279 369.456 200.872 363.812 205.7 339.935C209.813 319.597 211.573 299.962 210.809 282.935C209.915 262.986 211.59 240.619 215.368 222.078C218.906 204.71 218.959 204.244 217.995 198.702C217.117 193.647 214.782 191.838 206.05 189.448L199.96 187.781L204.369 184.827C209.882 181.134 210.666 177.672 206.698 174.551C203.139 171.751 200.87 171.868 187.994 175.516C177.921 178.369 176.739 178.505 171.977 177.363C168.115 176.436 165.538 174.903 161.627 171.204C158.763 168.495 155.96 164.961 155.399 163.351C154.436 160.59 154.592 160.316 158.145 158.503C163.492 155.775 164.512 154.148 165.184 147.273L165.778 141.192L172.08 139.261C181.141 136.485 184.897 132.352 189.655 119.922C191.748 114.454 194.57 108.087 195.926 105.772C202.543 94.4817 215.555 87.8577 233.278 86.7577C238.503 86.4327 242.978 85.9897 243.222 85.7737C243.734 85.3197 252.633 86.1177 262.778 87.5277ZM232.467 117.474C228.369 121.292 230.162 131.866 235.118 133.11C238.747 134.021 241.278 130.502 241.278 124.547C241.278 116.529 237.089 113.167 232.467 117.474ZM199.162 118.551C194.669 123.044 198.775 135.682 204.171 133.969C208.983 132.442 210.949 122.606 207.239 118.624C204.667 115.863 201.875 115.838 199.162 118.551ZM127.374 209.799C152.936 217.829 167.749 232.191 169.022 250.176C169.639 258.885 168.079 264.583 164.182 267.862C160.321 271.111 157.246 271.12 153.411 267.893C148.376 263.657 146.211 256.035 145.402 239.695C144.976 231.09 144.235 224.992 143.53 224.287C137.7 218.457 134.958 251.953 140.156 265.514C141.332 268.583 143.798 272.858 145.635 275.014C147.473 277.171 149.555 280.735 150.263 282.935C152.474 289.814 155.275 294.617 162.916 304.632C171.89 316.396 177.702 326.143 182.478 337.435C187.825 350.08 189.697 355.901 189 357.717C188.657 358.612 186.441 360.314 184.077 361.5C175.995 365.552 171.782 370.874 170.442 378.721C169.887 381.971 169.207 383.002 167.257 383.545C163.594 384.565 145.002 384.546 143.382 383.521C140.812 381.893 143.068 379.694 150.168 376.908C154.043 375.388 158.169 373.254 159.338 372.165C161.773 369.896 161.625 368.641 157.896 359.935C154.477 351.954 154.564 347.206 158.243 340.956C160.952 336.353 161.052 335.843 159.571 334.206C157.369 331.773 154.965 331.986 151.474 334.923C145.264 340.149 143.397 350.257 146.768 360.405C147.701 363.212 148.238 366.098 147.962 366.817C147.686 367.536 145.442 368.689 142.975 369.38C137.207 370.995 131.527 375.695 130.485 379.716C129.927 381.871 128.893 383.066 127.223 383.486C124.517 384.166 105.262 383.752 104.507 382.997C103.234 381.725 105.697 379.295 110.623 376.965C114.604 375.082 116.51 373.465 117.696 370.967C121.038 363.923 122.635 336.673 119.923 332.964C116.63 328.461 114.303 333.523 112.33 349.471C110.714 362.542 109.28 366.53 105.374 368.811L102.037 370.76L102.64 366.347C103.808 357.81 104.53 342.575 103.889 340.02C103.468 338.344 102.553 337.435 101.287 337.435C99.2656 337.435 97.2236 342.753 95.7176 351.935C94.5916 358.799 90.1796 376.735 88.8106 380.011C87.3706 383.457 84.3066 384.417 74.7776 384.409C65.3306 384.401 64.9806 381.645 73.6916 375.861C81.6326 370.588 83.4896 364.669 87.3126 332.435C89.4076 314.769 93.0196 291.662 93.9116 290.218C94.1776 289.787 95.7486 289.435 97.4026 289.435C101.471 289.435 104.278 287.781 104.278 285.384C104.278 283.333 102.913 282.552 92.1656 278.454C85.9146 276.071 81.5436 272.034 78.3856 265.725C75.8656 260.693 75.7396 257.091 77.8616 250.84C79.2536 246.739 79.2676 245.997 77.9786 244.707C76.8546 243.584 76.0376 243.493 74.4916 244.32C71.7326 245.797 68.2776 253.265 68.2776 257.751C68.2776 261.829 67.5496 262.144 63.2576 259.925C58.1366 257.277 56.8626 251.758 59.7656 244.809C61.3636 240.985 86.0666 215.239 92.2466 210.956C94.2876 209.542 97.9416 207.967 100.367 207.455C106.925 206.071 118.786 207.101 127.374 209.799ZM87.3506 227.07C84.7786 230.339 84.6836 234.588 87.1326 236.804C89.4776 238.926 91.9156 238.035 93.8146 234.363C97.7406 226.77 92.3606 220.7 87.3506 227.07ZM117.733 228.89C114.642 231.98 114.382 238.111 117.195 241.574L119.112 243.935L121.945 241.834C124.299 240.087 124.828 238.883 125.076 234.703C125.29 231.095 124.917 229.217 123.755 228.055C121.573 225.873 120.617 226.005 117.733 228.89ZM89.6346 246.372C86.5546 247.693 84.2776 251.384 84.2776 255.054C84.2776 259.694 89.9046 264.435 95.4126 264.435C103.839 264.435 109.937 253.056 104.263 247.921C101.975 245.851 93.0526 244.906 89.6346 246.372ZM410.689 367.512C413.516 370.871 414.125 375.949 412.028 378.682C410.768 380.325 400.278 382.784 400.278 381.437C400.278 381.038 401.628 377.734 403.278 374.095C404.928 370.456 406.278 366.794 406.278 365.957C406.278 363.591 407.859 364.148 410.689 367.512Z" fill="black"/>
</svg>
