<svg width="336" height="473" viewBox="0 0 336 473" fill="none" xmlns="http://www.w3.org/2000/svg">
<path fill-rule="evenodd" clip-rule="evenodd" d="M152.076 75.8999C129.319 78.8589 107.367 89.8889 92.6481 105.761C77.6911 121.89 69.6401 140.993 68.1711 163.834C67.7671 170.111 68.0091 171.84 69.6531 174.436C72.2681 178.566 74.1671 178.81 103.885 178.823C121.973 178.831 128.894 178.505 130.154 177.584C131.16 176.848 132.886 172.305 134.348 166.545C137.493 154.151 138.794 151.079 142.861 146.447C152.739 135.197 171.519 133.888 182.93 143.655C189.12 148.954 191.806 155.514 191.806 165.334C191.806 179.241 187.627 185.5 167.649 201.509C145.455 219.293 136.387 236.582 135.222 263.334C134.745 274.296 134.873 275.55 136.706 277.834L138.712 280.334H167.664C201.601 280.334 200.147 280.768 201.217 270.32C202.007 262.616 205.56 251.673 209.406 245.101C213.427 238.23 220.795 230.808 231.749 222.592C254.178 205.769 262.964 192.265 265.917 170.079C269.566 142.652 256.915 111.346 235.752 95.4379C223.947 86.5629 206.212 79.3069 188.991 76.3039C180.048 74.7439 162.448 74.5519 152.076 75.8999ZM193.326 90.7369C215.812 96.7199 229.83 105.541 240.338 120.32C254.18 139.787 256.867 168.674 246.644 188.104C242.792 195.425 232.148 206.44 219.663 216.025C209.712 223.665 201.455 233.176 196.499 242.706C192.844 249.733 189.826 258.984 189.826 263.156C189.826 268.974 190.358 268.834 168.219 268.834H147.826L147.843 263.584C147.883 251.49 152.21 237.418 159.018 227.239C163.113 221.117 166.279 218.02 176.771 209.877C191.434 198.496 196.639 192.995 200.851 184.426C207.102 171.708 207.02 157.404 200.622 144.885C188.441 121.049 151.427 117.934 132.27 139.132C127.792 144.087 124.428 151.531 122.632 160.456L121.601 165.579L101.214 165.456L80.8261 165.334V162.542C80.8261 158.039 83.7911 144.971 86.3651 138.133C89.1801 130.657 96.0901 119.672 102.043 113.215C113.026 101.3 132.12 91.9059 151.539 88.8649C161.506 87.3039 184.254 88.3229 193.326 90.7369ZM143.241 298.243C137.083 300.948 133.032 309.468 134.258 317.134C136.257 329.635 145.803 336.102 154.408 330.784C162.442 325.818 164.487 315.495 159.319 305.999C155.143 298.326 149.381 295.546 143.241 298.243ZM180.888 302.397C173.356 309.201 171.822 321.44 177.679 327.996C179.758 330.322 181.502 331.156 185.151 331.567C189.753 332.086 190.053 331.955 194.215 327.611C202.015 319.47 201.872 304.495 193.954 300.4C188.999 297.838 185.31 298.402 180.888 302.397ZM110.826 320.55C99.4461 326.349 102.668 348.657 115.497 352.89C119.842 354.324 125.312 351.805 128.649 346.834C131.83 342.096 131.472 331.854 127.946 326.725C123.132 319.719 116.881 317.465 110.826 320.55ZM212.116 327.799C210.351 328.875 207.709 331.565 206.245 333.777C196.963 347.804 210.058 361.472 222.398 350.636C224.34 348.932 226.58 346.276 227.377 344.735C230.332 339.021 228.43 329.298 223.881 326.864C220.857 325.245 215.622 325.661 212.116 327.799ZM160.826 337.405C155.919 338.966 152.981 341.103 138.44 353.69C126.676 363.872 123.493 368.791 123.493 376.79C123.493 387.315 130.016 394.818 140.553 396.414C143.122 396.803 148.53 396.348 154.335 395.255C163.829 393.467 163.946 393.469 173.107 395.661C189.243 399.521 197.475 398.312 203.774 391.155C211.481 382.4 210.498 371.018 201.081 359.996C194.182 351.92 178.447 339.234 173.049 337.394C167.606 335.54 166.686 335.541 160.826 337.405Z" fill="black"/>
</svg>
