<svg width="473" height="473" viewBox="0 0 473 473" fill="none" xmlns="http://www.w3.org/2000/svg">
<path fill-rule="evenodd" clip-rule="evenodd" d="M268.485 80.8596C236.202 85.4022 208.429 102.258 195.233 125.318C193.213 128.847 189.923 133.111 187.921 134.795C183.418 138.584 171.444 142.138 157.053 143.956C136.199 146.592 133.532 147.42 127.961 152.991C121.433 159.517 120.064 164.555 119.177 185.319C118.028 212.211 121.38 234.096 128.565 246.609C138.186 263.364 154.517 274.529 184.987 285.182C225.814 299.455 233.361 304.551 240.259 322.498C243.662 331.353 245.338 350.856 244.352 370.121C243.475 387.281 244.587 392.449 249.422 393.662C253.79 394.757 256.844 393.193 258.638 388.943C260.907 383.57 260.893 339.376 258.621 329.18C253.431 305.892 243.491 291.743 225.953 282.683C220.789 280.015 207 274.43 195.311 270.271C172.192 262.045 165.336 258.879 158.956 253.481L154.788 249.954L169.925 249.45C182.97 249.015 185.886 248.533 191.034 245.956C198.51 242.214 201.839 237.918 200.719 233.456C199.605 229.022 195.159 228.069 188.117 230.756C185.06 231.922 177.838 233.17 172.07 233.528C163.502 234.061 160.008 233.703 152.983 231.569C139.678 227.528 138.132 225.662 136.631 211.822C135.091 197.619 135.527 196.229 141.53 196.178C147.718 196.126 158.597 190.52 162.787 185.224C165.071 182.335 167.06 177.319 168.802 170.046C171.409 159.169 173.252 156.146 177.28 156.146C181.446 156.146 193.129 150.997 197.329 147.311C199.666 145.26 204.555 139.06 208.194 133.535C216.374 121.118 224.599 113.74 237.211 107.509C253.422 99.5024 264.158 97.3531 288.221 97.2997C311.038 97.2487 316.934 98.3597 333.353 105.802C369.146 122.027 396.482 156.837 406.205 198.569C414.205 232.906 407.298 269.366 389.799 285.172C376.337 297.332 355.202 299.627 336.531 290.956C317.635 282.18 307.218 264.611 307.089 241.301C307.008 226.512 313.483 190.579 322.872 153.72C327.562 135.307 327.747 133.944 325.928 131.169C323.559 127.555 320.062 127.385 316.942 130.734C312.775 135.206 305.336 161.118 297.276 199.253C294.313 213.264 293.28 221.669 292.798 235.681C292.08 256.523 293.359 263.694 300.398 278.329C308.452 295.068 327.538 308.581 348.374 312.296C362.198 314.761 376.907 313.022 387.653 307.652C390.461 306.25 392.795 305.748 393.452 306.405C394.058 307.011 397.235 312.79 400.515 319.249C407.865 333.724 418.783 350.74 424.614 356.805C431.231 363.688 437 362.552 437 354.368C437 351.381 434.673 346.674 428.288 336.748C417.976 320.713 409.832 305.588 407.838 298.77C406.45 294.022 406.607 293.476 412.52 282.377C422.21 264.192 424.239 254.732 424.233 227.788C424.227 202.772 422.836 194.281 415.657 175.389C410.571 162.004 407.83 156.617 399.991 144.61C380.592 114.893 349.471 91.6314 318.584 83.7605C305.04 80.3095 281.913 78.9702 268.485 80.8596ZM67.1787 137.34C58.6564 141.604 49.2403 155.506 42.9272 173.146C39.0723 183.914 35.0073 209.807 35 223.637C34.9915 236.945 38.7152 256.614 43.5636 268.876C50.3734 286.099 60.9543 295.159 67.0925 289.023C69.9867 286.128 69.5094 284.33 62.9911 273.548C52.296 255.862 48.8091 240.011 49.986 214.431C51.3171 185.477 59.5333 162.668 73.4736 149.226C78.0815 144.783 78.5576 141.416 75.0731 137.932C72.1704 135.03 71.8485 135.005 67.1787 137.34ZM242.955 150.887C242.106 151.229 240.602 153.071 239.615 154.981C233.358 167.079 244.922 179.069 254.05 169.945C258.347 165.648 258.922 156.377 255.15 152.2C253.31 150.161 246.564 149.436 242.955 150.887ZM89.0826 168.743C85.2034 172.621 80.8117 181.541 77.3491 192.574C74.8824 200.432 74.4889 204.18 74.478 219.895C74.4683 235.33 74.8751 239.406 77.1475 246.609C81.9619 261.866 90.2097 271.598 95.511 268.277C98.7793 266.229 98.5704 262.259 94.7034 252.932C89.4117 240.168 88.0041 231.172 88.7231 214.698C89.3704 199.84 92.5355 187.69 98.1077 178.677C101.251 173.593 101.302 168.761 98.2291 167.117C94.605 165.178 92.2245 165.601 89.0826 168.743Z" fill="black"/>
</svg>
